<?xml version="1.0" encoding="UTF-8"?>
<svg id="LP_COLOR_AZUL" data-name="LP COLOR + AZUL" xmlns="http://www.w3.org/2000/svg" viewBox="0 0 720 720">
  <defs>
    <style>
      .cls-1 {
        letter-spacing: -.05em;
      }

      .cls-2 {
        letter-spacing: -.09em;
      }

      .cls-3 {
        font-family: Helvetica-Bold, Helvetica;
        font-size: 25px;
      }

      .cls-3, .cls-4 {
        fill: #fff;
        font-weight: 700;
      }

      .cls-5 {
        fill: #4a73b1;
        stroke-width: 0px;
      }

      .cls-6 {
        letter-spacing: 0em;
      }

      .cls-7 {
        letter-spacing: 0em;
      }

      .cls-8 {
        letter-spacing: -.07em;
      }

      .cls-9 {
        stroke-width: 4px;
      }

      .cls-9, .cls-10 {
        stroke: #92dccd;
      }

      .cls-9, .cls-10, .cls-11 {
        fill: none;
        stroke-miterlimit: 10;
      }

      .cls-12 {
        letter-spacing: -.05em;
      }

      .cls-4 {
        font-family: HelveticaNeue-Bold, 'Helvetica Neue';
        font-size: 40px;
      }

      .cls-10 {
        stroke-width: 5px;
      }

      .cls-11 {
        stroke: #dfb86a;
        stroke-width: 6px;
      }
    </style>
  </defs>
  <rect class="cls-5" y="0" width="720" height="720"/>
  <text class="cls-4" transform="translate(234.02 541.05)"><tspan class="cls-1" x="0" y="0">V</tspan><tspan class="cls-6" x="23.36" y="0">AC</tspan><tspan class="cls-2" x="80.4" y="0">A</tspan><tspan x="104.12" y="0">TIONAL</tspan></text>
  <text class="cls-3" transform="translate(302.59 578.87)"><tspan x="0" y="0">CALA</tspan><tspan class="cls-12" x="69.43" y="0">F</tspan><tspan class="cls-8" x="83.34" y="0">A</tspan><tspan class="cls-7" x="99.55" y="0">T</tspan></text>
  <path class="cls-10" d="M76,418.07c26.66-18.06,48.53,1.74,81.21,24.29,32.68,22.55,49.02,19.11,67.08,11.37s40.42-27.35,67.08-29.16c26.66-1.81,70.05,32.3,92.22,35.03,22.17,2.73,60.01-17.06,75.49-26.52s42.14-17.2,67.08,4.3c24.94,21.5,35.26,23.44,59.34,22.47,24.08-.97,58.48-25.91,58.48-25.91"/>
  <path class="cls-9" d="M76,443.73c26.66-18.06,48.53,1.74,81.21,24.29,32.68,22.55,49.02,19.11,67.08,11.37s40.42-27.35,67.08-29.16c26.66-1.81,70.05,32.3,92.22,35.03,22.17,2.73,60.01-17.06,75.49-26.52s42.14-17.2,67.08,4.3c24.94,21.5,35.26,23.44,59.34,22.47,24.08-.97,58.48-25.91,58.48-25.91"/>
  <path class="cls-11" d="M76,418.07c.93-149,136.93-276.88,279.93-276.94,143-.06,286.13,109.28,288.07,292.61"/>
</svg>